<svg width="36" height="36" viewBox="0 0 36 36" fill="none" xmlns="http://www.w3.org/2000/svg">
<path d="M21.8683 25.4311C20.2396 25.4311 18.5091 25.4311 16.7785 25.4311C17.6947 26.7545 17.5929 27.976 16.2695 28.8922C15.4552 29.503 14.4372 29.2994 13.7246 28.7904C12.5031 27.7724 12.5031 26.6527 13.3174 25.3293C13.1138 25.3293 12.9102 25.3293 12.8084 25.3293C12.2995 25.3293 11.9941 24.9221 12.1977 24.4132C12.4013 23.7006 12.7066 22.988 12.9102 22.2754C12.9102 22.1736 12.9102 22.1736 13.012 22.0718C12.9102 22.0718 12.8085 22.0718 12.7067 22.0718C12.2995 22.0718 11.9941 21.7664 11.8923 21.3593C11.5869 19.9341 11.3833 18.509 11.0779 17.0838C10.7725 15.3533 10.4671 13.7245 10.1618 11.994C9.95816 11.1796 9.85637 10.2634 9.65278 9.44907C9.65278 9.34727 9.55097 9.24549 9.44917 9.24549C8.533 8.83831 7.51505 8.53291 6.59888 8.12573C6.39529 8.02393 6.1917 7.92214 6.0899 7.71855C5.88631 7.41316 5.88628 7.20955 6.19167 6.90416C6.39526 6.70056 6.70067 6.59879 7.00606 6.70058C8.12582 7.10777 9.34737 7.61674 10.4671 8.02392C10.7725 8.12572 10.9761 8.43112 11.0779 8.73651C11.3833 10.3653 11.6887 12.0958 11.9941 13.7245C12.2995 15.5569 12.7067 17.3892 13.012 19.2215C13.1138 19.7305 13.2156 20.1377 13.3174 20.6467C13.4192 20.6467 13.521 20.6467 13.6228 20.6467C17.4911 20.6467 21.3593 20.6467 25.1258 20.6467C25.533 20.6467 25.533 20.6467 25.6348 20.3413C26.1438 18.7126 26.7546 16.982 27.2635 15.3533C27.5689 14.3353 27.8743 13.3174 28.2815 12.2994C28.3833 12.0958 28.2815 12.0958 28.1797 12.0958C27.4671 12.0958 26.8564 12.0958 26.1438 11.994C24.9222 11.8922 23.7007 11.8922 22.3773 11.7904C21.8683 11.7904 21.2576 11.7904 20.7486 11.6886C19.3234 11.5868 17.7965 11.5868 16.3713 11.485C15.6587 11.485 15.048 11.3832 14.3354 11.3832C13.9282 11.3832 13.6228 10.976 13.6228 10.6706C13.6228 10.2635 13.9282 9.95805 14.4372 9.95805C15.1498 9.95805 15.8623 10.0599 16.5749 10.0599C17.1857 10.0599 17.7965 10.0599 18.509 10.1617C19.7306 10.2635 21.054 10.2635 22.2755 10.3653C22.8863 10.3653 23.4971 10.3652 24.1078 10.467C25.3294 10.5688 26.6528 10.5688 27.8743 10.6706C28.2815 10.6706 28.7905 10.7724 29.1977 10.7724C29.6049 10.7724 30.012 10.976 30.1138 11.3832C30.1138 11.485 30.2156 11.5868 30.1138 11.6886C29.5031 13.4191 28.9941 15.2515 28.3833 16.982C27.9761 18.4072 27.4671 19.7305 27.0599 21.1557C26.9581 21.3592 26.9582 21.5629 26.8564 21.8682C26.7546 22.2754 26.4492 22.3772 26.042 22.3772C24.006 22.3772 22.0719 22.3772 20.036 22.3772C18.3055 22.3772 16.4731 22.3772 14.7426 22.3772C14.539 22.3772 14.4372 22.479 14.3354 22.5808C14.1318 23.1916 13.9282 23.7006 13.7246 24.3114C13.8264 24.3114 13.9282 24.3114 14.03 24.3114C18.0001 24.3114 21.8683 24.3114 25.8384 24.3114C25.9402 24.3114 26.042 24.3114 26.1438 24.3114C26.551 24.4131 26.6528 24.6167 26.6528 24.9221C26.6528 25.2275 26.3474 25.4311 26.042 25.4311C25.8384 25.4311 25.6348 25.4311 25.4312 25.4311C25.4312 25.4311 25.4312 25.4311 25.3294 25.4311C25.8384 26.1437 26.042 26.8563 25.7366 27.6707C25.533 28.1796 25.2276 28.5868 24.8204 28.7904C24.0061 29.2994 22.9881 29.2994 22.1737 28.6886C21.8683 28.3832 21.6647 28.0778 21.4611 27.6707C21.3593 27.2635 21.2576 26.8563 21.3594 26.4491C21.4612 26.1437 21.6648 25.8383 21.8683 25.4311ZM24.6168 27.0599C24.6168 26.4491 24.2096 26.0419 23.5989 25.9401C22.9881 25.9401 22.4791 26.3473 22.4791 26.9581C22.4791 27.467 22.8863 27.976 23.4971 28.0778C24.006 28.0778 24.6168 27.6706 24.6168 27.0599ZM14.03 26.9581C14.03 27.5688 14.539 27.976 15.048 27.976C15.6588 27.976 16.0659 27.467 16.0659 26.9581C16.0659 26.3473 15.557 25.9401 15.048 25.9401C14.539 25.9401 14.03 26.4491 14.03 26.9581Z" fill="url(#paint0_linear)"/>
<path d="M18 35C27.3888 35 35 27.3889 35 18C35 8.61117 27.3888 1 18 1C8.61114 1 1 8.61117 1 18C1 27.3889 8.61114 35 18 35Z" stroke="url(#paint1_linear)" stroke-miterlimit="10"/>
<defs>
<linearGradient id="paint0_linear" x1="17.9792" y1="6.69814" x2="17.9792" y2="29.2879" gradientUnits="userSpaceOnUse">
<stop stop-color="#C34B90"/>
<stop offset="0.4119" stop-color="#C34A90"/>
<stop offset="0.5608" stop-color="#C04A90"/>
<stop offset="0.667" stop-color="#BB4990"/>
<stop offset="0.7529" stop-color="#B34890"/>
<stop offset="0.8264" stop-color="#A84690"/>
<stop offset="0.8917" stop-color="#98458F"/>
<stop offset="0.9492" stop-color="#86438E"/>
<stop offset="1" stop-color="#72408D"/>
</linearGradient>
<linearGradient id="paint1_linear" x1="17.9791" y1="0.514533" x2="17.9791" y2="35.4715" gradientUnits="userSpaceOnUse">
<stop stop-color="#C34B90"/>
<stop offset="0.4119" stop-color="#C34A90"/>
<stop offset="0.5608" stop-color="#C04A90"/>
<stop offset="0.667" stop-color="#BB4990"/>
<stop offset="0.7529" stop-color="#B34890"/>
<stop offset="0.8264" stop-color="#A84690"/>
<stop offset="0.8917" stop-color="#98458F"/>
<stop offset="0.9492" stop-color="#86438E"/>
<stop offset="1" stop-color="#72408D"/>
</linearGradient>
</defs>
</svg>
