<svg width="162" height="91" viewBox="0 0 162 91" fill="none" xmlns="http://www.w3.org/2000/svg">
<path d="M6.90007 77.3392C6.70007 77.2392 6.50005 77.1392 6.50005 76.9392C6.40005 76.7392 6.40005 76.5392 6.50005 76.3392L8.40007 71.8392L13.9001 58.6392C13.9001 58.6392 13.9 58.5392 14 58.5392L14.1001 58.4392C14.1001 58.4392 14.1001 58.3392 14.2001 58.3392C14.2001 58.3392 14.2001 58.3392 14.3001 58.2392H14.4001C14.5001 58.1392 14.6001 58.1392 14.7001 58.1392H14.8001C14.9001 58.1392 14.9001 58.1392 14.9001 58.1392C14.9001 58.1392 14.9 58.1392 15 58.1392C15.1 58.1392 15.1001 58.1392 15.1001 58.1392C15.2001 58.1392 15.3001 58.2392 15.4001 58.2392H15.5L15.6001 58.3392C15.6001 58.3392 15.6001 58.3392 15.7001 58.4392L15.8001 58.5392C15.8001 58.6392 15.8001 58.6392 15.9001 58.6392L21.4001 71.8392L23.3001 76.3392C23.4001 76.5392 23.4001 76.7392 23.3001 76.9392C23.2001 77.1392 23.1001 77.3392 22.9001 77.3392C22.8001 77.3392 22.7001 77.4392 22.6001 77.4392C22.2001 77.4392 22.0001 77.2392 21.9001 76.9392L20.2001 72.9392H10.3001L8.60005 76.9392C8.50005 77.2392 8.20007 77.4392 7.90007 77.4392C7.80007 77.4392 7.70006 77.4392 7.70006 77.4392C7.70006 77.4392 7.00007 77.4392 6.90007 77.3392ZM18.9001 71.2392L14.6001 60.9392L10.3001 71.2392H18.9001Z" fill="#C34B90"/>
<path d="M27.3 58.0393C27.5 58.0393 27.7 58.1393 27.9 58.2393C28.1 58.4393 28.1 58.5393 28.1 58.8393V75.8393H36.9C37.1 75.8393 37.3 75.9393 37.5 76.0393C37.7 76.2393 37.7 76.4393 37.7 76.6393C37.7 76.8393 37.6 77.0393 37.5 77.2393C37.3 77.4393 37.2 77.4393 36.9 77.4393H27.3C27.1 77.4393 26.9 77.3393 26.7 77.2393C26.5 77.0393 26.5 76.8393 26.5 76.6393V58.8393C26.5 58.6393 26.6 58.4393 26.7 58.2393C26.8 58.1393 27 58.0393 27.3 58.0393Z" fill="#C34B90"/>
<path d="M41.8 77.4393C41.6 77.4393 41.4 77.3393 41.2 77.2393C41 77.0393 41 76.9393 41 76.6393V58.8393C41 58.6393 41.1 58.4393 41.2 58.2393C41.4 58.0393 41.6 58.0393 41.8 58.0393H48C49.6 58.0393 50.9 58.5393 52.1 59.5393C53.2 60.5393 53.8 61.7393 53.8 63.2393C53.8 64.1393 53.6 64.9393 53.1 65.7393C52.7 66.5393 52.1 67.1393 51.3 67.6393C52.2 68.1393 52.9 68.7393 53.4 69.5393C53.9 70.3393 54.2 71.2393 54.2 72.2393C54.2 73.7393 53.6 74.9393 52.5 75.9393C51.4 76.9393 50 77.5393 48.5 77.5393H41.8V77.4393ZM42.7 66.9393H48.1C49.2 66.9393 50.2 66.5393 51 65.8393C51.8 65.1393 52.2 64.2393 52.2 63.2393C52.2 62.2393 51.8 61.3393 51 60.7393C50.2 60.0393 49.2 59.7393 48.1 59.7393H42.7V66.9393ZM42.7 75.8393H48.5C49.6 75.8393 50.6 75.4393 51.4 74.7393C52.2 74.0393 52.6 73.1393 52.6 72.1393C52.6 71.1393 52.2 70.2393 51.4 69.6393C50.6 68.9393 49.7 68.6393 48.5 68.6393H48.4C48.3 68.6393 48.2 68.6393 48.1 68.6393H42.7V75.8393Z" fill="#C34B90"/>
<path d="M58.4001 77.3392C58.2001 77.2392 58 77.1392 58 76.9392C57.9 76.7392 57.9 76.5392 58 76.3392L59.9001 71.8392L65.4001 58.6392C65.4001 58.6392 65.4 58.5392 65.5 58.5392L65.6001 58.4392C65.6001 58.4392 65.6001 58.3392 65.7001 58.3392C65.7001 58.3392 65.7001 58.3392 65.8001 58.2392H65.9001C66.0001 58.1392 66.1001 58.1392 66.2001 58.1392H66.3001C66.4001 58.1392 66.4001 58.1392 66.4001 58.1392C66.4001 58.1392 66.4 58.1392 66.5 58.1392C66.6 58.1392 66.6001 58.1392 66.6001 58.1392C66.7001 58.1392 66.8001 58.2392 66.9001 58.2392H67L67.1001 58.3392C67.1001 58.3392 67.1001 58.3392 67.2001 58.4392L67.3001 58.5392C67.3001 58.6392 67.3001 58.6392 67.4001 58.6392L72.9001 71.8392L74.8001 76.3392C74.9001 76.5392 74.9001 76.7392 74.8001 76.9392C74.7001 77.1392 74.6001 77.3392 74.4001 77.3392C74.3001 77.3392 74.2001 77.4392 74.1001 77.4392C73.7001 77.4392 73.5001 77.2392 73.4001 76.9392L71.7001 72.9392H61.8001L60.1001 76.9392C60.0001 77.2392 59.7001 77.4392 59.4001 77.4392C59.3001 77.4392 59.2001 77.4392 59.2001 77.4392C59.2001 77.4392 58.5001 77.4392 58.4001 77.3392ZM70.3001 71.2392L66 60.9392L61.7001 71.2392H70.3001Z" fill="#C34B90"/>
<path d="M84.7 58.0393C86.3 58.0393 87.6 58.5393 88.7 59.5393C89.8 60.5393 90.4001 61.8393 90.4001 63.2393C90.4001 64.5393 89.9 65.6393 89 66.6393C88.1 67.6393 87 68.2393 85.7 68.4393L89.6 76.3393C89.7 76.5393 89.7 76.7393 89.6 76.9393C89.5 77.1393 89.4 77.3393 89.2 77.4393C89.1 77.5393 89 77.5393 88.8 77.5393C88.5 77.5393 88.2 77.4393 88.1 77.1393L83.9001 68.6393H79.4001V76.6393C79.4001 76.8393 79.3 77.0393 79.2 77.2393C79 77.4393 78.9 77.4393 78.6 77.4393C78.4 77.4393 78.2 77.3393 78 77.2393C77.8 77.0393 77.8 76.8393 77.8 76.6393V58.9393C77.8 58.7393 77.9 58.5393 78 58.3393C78.2 58.1393 78.4 58.1393 78.6 58.1393H84.7V58.0393ZM88.7 63.2393C88.7 62.2393 88.3 61.3393 87.5 60.6393C86.7 59.9393 85.7 59.5393 84.6 59.5393H79.3V66.7393H84.7C85.8 66.7393 86.7 66.3393 87.5 65.6393C88.3 65.0393 88.7 64.2393 88.7 63.2393Z" fill="#C34B90"/>
<path d="M95.5002 77.4392C95.3002 77.4392 95.1002 77.3392 94.9002 77.2392C94.7002 77.0392 94.7002 76.9392 94.7002 76.6392V58.8392C94.7002 58.6392 94.8002 58.4392 94.9002 58.2392C95.1002 58.0392 95.3002 57.9392 95.5002 58.0392H106.3C106.5 58.0392 106.7 58.1392 106.9 58.2392C107.1 58.4392 107.1 58.6392 107.1 58.8392C107.1 59.0392 107 59.2392 106.9 59.4392C106.7 59.6392 106.6 59.6392 106.3 59.6392H96.4002V66.9392H103.8C104 66.9392 104.2 67.0392 104.4 67.1392C104.6 67.3392 104.6 67.4392 104.6 67.7392C104.6 67.9392 104.5 68.1392 104.4 68.3392C104.2 68.5392 104.1 68.5392 103.8 68.5392H96.4002V75.8392H106.3C106.5 75.8392 106.7 75.9392 106.9 76.0392C107.1 76.2392 107.1 76.3392 107.1 76.6392C107.1 76.8392 107 77.0392 106.9 77.2392C106.7 77.4392 106.6 77.4392 106.3 77.4392H95.5002V77.4392Z" fill="#C34B90"/>
<path d="M111.9 58.0393C112.1 58.0393 112.3 58.1393 112.5 58.2393C112.7 58.4393 112.7 58.5393 112.7 58.8393V75.8393H121.5C121.7 75.8393 121.9 75.9393 122.1 76.0393C122.3 76.2393 122.3 76.4393 122.3 76.6393C122.3 76.8393 122.2 77.0393 122.1 77.2393C121.9 77.4393 121.8 77.4393 121.5 77.4393H111.9C111.7 77.4393 111.5 77.3393 111.3 77.2393C111.1 77.0393 111.1 76.8393 111.1 76.6393V58.8393C111.1 58.6393 111.2 58.4393 111.3 58.2393C111.5 58.1393 111.7 58.0393 111.9 58.0393Z" fill="#C34B90"/>
<path d="M126.5 58.0393C126.7 58.0393 126.9 58.1393 127.1 58.2393C127.3 58.4393 127.3 58.5393 127.3 58.8393V75.8393H136.1C136.3 75.8393 136.5 75.9393 136.7 76.0393C136.9 76.2393 136.9 76.4393 136.9 76.6393C136.9 76.8393 136.8 77.0393 136.7 77.2393C136.5 77.4393 136.4 77.4393 136.1 77.4393H126.5C126.3 77.4393 126.1 77.3393 125.9 77.2393C125.7 77.0393 125.7 76.8393 125.7 76.6393V58.8393C125.7 58.6393 125.8 58.4393 125.9 58.2393C126.1 58.1393 126.3 58.0393 126.5 58.0393Z" fill="#C34B90"/>
<path d="M139.6 77.3392C139.4 77.2392 139.2 77.1392 139.2 76.9392C139.1 76.7392 139.1 76.5392 139.2 76.3392L141.1 71.8392L146.6 58.6392C146.6 58.6392 146.6 58.5392 146.7 58.5392L146.8 58.4392C146.8 58.4392 146.8 58.3392 146.9 58.3392C146.9 58.3392 146.9 58.3392 147 58.2392H147.1C147.2 58.1392 147.3 58.1392 147.4 58.1392H147.5C147.6 58.1392 147.6 58.1392 147.6 58.1392C147.6 58.1392 147.6 58.1392 147.7 58.1392C147.8 58.1392 147.8 58.1392 147.8 58.1392C147.9 58.1392 148 58.2392 148.1 58.2392H148.2L148.3 58.3392C148.3 58.3392 148.3 58.3392 148.4 58.4392L148.5 58.5392C148.5 58.6392 148.5 58.6392 148.6 58.6392L154.1 71.8392L156 76.3392C156.1 76.5392 156.1 76.7392 156 76.9392C155.9 77.1392 155.8 77.3392 155.6 77.3392C155.5 77.3392 155.4 77.4392 155.3 77.4392C154.9 77.4392 154.7 77.2392 154.6 76.9392L152.9 72.9392H143L141.3 76.9392C141.2 77.2392 140.9 77.4392 140.6 77.4392C140.5 77.4392 140.4 77.4392 140.4 77.4392C140.4 77.4392 139.7 77.4392 139.6 77.3392ZM151.6 71.2392L147.3 60.9392L143 71.2392H151.6Z" fill="#C34B90"/>
<path d="M82.5 0.999999L58 25.1272L82.5 49.2544L107 25.1272L82.5 0.999999Z" stroke="url(#paint0_linear)" stroke-width="0.25" stroke-miterlimit="10"/>
<path d="M66.4592 33.4053H98.6174" stroke="url(#paint1_linear)" stroke-width="0.25" stroke-miterlimit="10"/>
<path d="M74.58 29.9934C74.3634 29.8867 74.2552 29.7801 74.1469 29.5668C74.0386 29.3536 74.0386 29.1403 74.1469 28.9271L76.0959 24.2354L81.8345 10.5869C81.8345 10.5869 81.8345 10.4802 81.9428 10.4802L82.0511 10.3736C82.0511 10.3736 82.0511 10.267 82.1594 10.267C82.1594 10.267 82.1594 10.267 82.2676 10.1603H82.3759C82.4842 10.0537 82.5925 10.0537 82.7007 10.0537H82.809C82.9173 10.0537 82.9173 10.0537 82.9173 10.0537C82.9173 10.0537 82.9173 10.0537 83.0256 10.0537C83.1339 10.0537 83.1339 10.0537 83.1339 10.0537C83.2421 10.0537 83.3504 10.1603 83.4587 10.1603H83.567L83.6753 10.267C83.6753 10.267 83.6752 10.267 83.7835 10.3736L83.8918 10.4802C83.8918 10.5869 83.8918 10.5869 84.0001 10.5869L89.7387 24.2354L91.6877 28.9271C91.796 29.1403 91.796 29.3536 91.6877 29.5668C91.5795 29.7801 91.4712 29.8867 91.2546 29.9934C91.1464 29.9934 91.0381 30.1 90.9298 30.1C90.6049 30.1 90.2801 29.8867 90.1719 29.5668L88.4394 25.4083H78.1531L76.4207 29.5668C76.3124 29.8867 75.9876 30.1 75.6627 30.1C75.5545 30.1 75.4462 30.1 75.4462 30.1C75.4462 30.1 74.6883 29.9934 74.58 29.9934ZM87.0318 23.7022L82.5925 13.0393L78.1531 23.7022H87.0318Z" fill="#C34B90"/>
<path d="M24.3129 90.5005C24.2086 90.5005 24.2086 90.5005 24.1043 90.384C24 90.384 24 90.2676 24 90.1511V83.3976C24 83.2812 24 83.2812 24.1043 83.1648C24.2086 83.0483 24.2086 83.0483 24.3129 83.0483H27.964C28.0683 83.0483 28.0683 83.0483 28.1727 83.1648C28.277 83.2812 28.277 83.2812 28.277 83.3976C28.277 83.5141 28.277 83.5141 28.1727 83.6305C28.1727 83.6305 28.0683 83.747 27.964 83.747H24.6259V86.5415H27.1295C27.2338 86.5415 27.2338 86.5415 27.3381 86.658C27.4424 86.658 27.4424 86.7744 27.4424 86.8908C27.4424 87.0073 27.4424 87.0073 27.3381 87.1237C27.3381 87.2402 27.2338 87.2402 27.1295 87.2402H24.6259V90.0347H27.964C28.0683 90.0347 28.0683 90.0347 28.1727 90.1511C28.277 90.1511 28.277 90.2676 28.277 90.384C28.277 90.5005 28.277 90.5005 28.1727 90.6169C28.1727 90.7334 28.0683 90.7333 27.964 90.7333H24.3129V90.5005Z" fill="#C34B90"/>
<path d="M34.3274 90.384L30.1547 84.3292V90.1511C30.1547 90.2676 30.1547 90.2676 30.0504 90.384C30.0504 90.5005 29.9461 90.5005 29.8417 90.5005C29.7374 90.5005 29.7374 90.5005 29.6331 90.384C29.5288 90.384 29.5288 90.2676 29.5288 90.1511V83.3976C29.5288 83.2812 29.6331 83.1648 29.7375 83.0483C29.8418 83.0483 29.9461 83.0483 30.0504 83.1648L34.2231 89.2196V83.3976C34.2231 83.2812 34.2231 83.2812 34.3274 83.1648C34.4317 83.0483 34.4317 83.0483 34.536 83.0483C34.6403 83.0483 34.6403 83.0483 34.7446 83.1648C34.7446 83.1648 34.849 83.2812 34.849 83.3976V90.1511C34.849 90.1511 34.849 90.1511 34.7446 90.1511C34.4317 90.384 34.4317 90.384 34.3274 90.384C34.4317 90.384 34.4317 90.384 34.3274 90.384C34.3274 90.384 34.4317 90.384 34.3274 90.384Z" fill="#C34B90"/>
<path d="M38.3957 87.1237C37.6654 87.1237 37.1439 86.8908 36.7266 86.4251C36.4136 86.0758 36.3093 85.61 36.3093 85.1442C36.3093 84.562 36.518 84.0963 36.9352 83.6305C37.3525 83.2812 37.7698 83.0483 38.2913 83.0483C38.8129 83.0483 39.2302 83.1648 39.5431 83.3976C39.9604 83.6305 40.2734 84.0963 40.3777 84.562C40.3777 84.6785 40.3777 84.6785 40.3777 84.7949C40.3777 84.9114 40.2734 84.9114 40.1691 84.9114C40.0647 84.9114 40.0647 84.9114 39.9604 84.9114C39.8561 84.9114 39.8561 84.7949 39.8561 84.6785C39.7518 84.3292 39.5431 84.0963 39.2302 83.8634C38.9172 83.747 38.6043 83.6305 38.2913 83.6305C37.8741 83.6305 37.5611 83.747 37.2482 84.0963C36.9352 84.3292 36.8309 84.6785 36.8309 85.1442C36.8309 85.4936 36.9352 85.7264 37.1438 85.9593C37.4568 86.3086 37.8741 86.4251 38.3957 86.4251C38.5 86.4251 38.5 86.4251 38.6043 86.5415C38.6043 86.658 38.7086 86.658 38.7086 86.7744C38.7086 86.8908 38.7086 86.8908 38.6043 87.0073C38.5 87.0073 38.5 87.1237 38.3957 87.1237ZM37.1438 90.1511C36.7266 89.9183 36.4136 89.4525 36.3093 88.9867C36.3093 88.8703 36.3093 88.8703 36.3093 88.7539C36.3093 88.6374 36.4137 88.6374 36.518 88.6374C36.6223 88.6374 36.6223 88.6374 36.7266 88.6374C36.8309 88.6374 36.8309 88.7539 36.8309 88.8703C36.9352 89.2196 37.1439 89.4525 37.4568 89.6854C37.7698 89.8018 38.0827 89.9183 38.3957 89.9183C38.8129 89.9183 39.1259 89.8018 39.4388 89.4525C39.7518 89.2196 39.8561 88.8703 39.8561 88.4045C39.8561 88.0552 39.7518 87.8224 39.5431 87.5895C39.2302 87.2402 38.8129 87.1237 38.2913 87.1237C38.187 87.1237 38.187 87.1237 38.0827 87.0073C38.0827 86.8908 37.9784 86.8908 37.9784 86.7744C37.9784 86.658 37.9784 86.658 38.0827 86.5415C38.0827 86.5415 38.187 86.4251 38.2913 86.4251C39.0216 86.4251 39.5431 86.658 39.9604 87.1237C40.2734 87.473 40.3777 87.9388 40.3777 88.4045C40.3777 88.9867 40.169 89.4525 39.7518 89.9183C39.3345 90.2676 38.9172 90.5005 38.3957 90.5005C37.9784 90.5005 37.5611 90.384 37.1438 90.1511Z" fill="#C34B90"/>
<path d="M42.3598 90.5005C42.2555 90.5005 42.2555 90.5005 42.1512 90.384C42.0469 90.384 42.0469 90.2676 42.0469 90.1511V83.3976C42.0469 83.2812 42.0469 83.2812 42.1512 83.1648C42.2555 83.0483 42.2555 83.0483 42.3598 83.0483H46.0109C46.1152 83.0483 46.1152 83.0483 46.2195 83.1648C46.3239 83.2812 46.3239 83.2812 46.3239 83.3976C46.3239 83.5141 46.3239 83.5141 46.2195 83.6305C46.2195 83.6305 46.1152 83.747 46.0109 83.747H42.6728V86.5415H45.1764C45.2807 86.5415 45.2807 86.5415 45.385 86.658C45.4893 86.658 45.4893 86.7744 45.4893 86.8908C45.4893 87.0073 45.4893 87.0073 45.385 87.1237C45.385 87.2402 45.2807 87.2402 45.1764 87.2402H42.6728V90.0347H46.0109C46.1152 90.0347 46.1152 90.0347 46.2195 90.1511C46.3239 90.1511 46.3239 90.2676 46.3239 90.384C46.3239 90.5005 46.3239 90.5005 46.2195 90.6169C46.2195 90.7334 46.1152 90.7333 46.0109 90.7333H42.3598V90.5005Z" fill="#C34B90"/>
<path d="M52.3747 90.384L48.2021 84.3292V90.1511C48.2021 90.2676 48.2021 90.2676 48.0978 90.384C48.0978 90.5005 47.9935 90.5005 47.8891 90.5005C47.7848 90.5005 47.7848 90.5005 47.6805 90.384C47.5762 90.384 47.5762 90.2676 47.5762 90.1511V83.3976C47.5762 83.2812 47.6805 83.1648 47.7848 83.0483C47.8891 83.0483 47.9934 83.0483 48.0978 83.1648L52.2704 89.2196V83.3976C52.2704 83.2812 52.2704 83.2812 52.3747 83.1648C52.4791 83.0483 52.4791 83.0483 52.5834 83.0483C52.6877 83.0483 52.6877 83.0483 52.792 83.1648C52.792 83.1648 52.8963 83.2812 52.8963 83.3976V90.1511C52.8963 90.1511 52.8963 90.1511 52.792 90.1511C52.4791 90.384 52.4791 90.384 52.3747 90.384C52.4791 90.384 52.4791 90.384 52.3747 90.384C52.4791 90.384 52.4791 90.384 52.3747 90.384Z" fill="#C34B90"/>
<path d="M57.4855 90.5003C56.5466 90.5003 55.8165 90.1509 55.1906 89.4523C54.5647 88.7537 54.2517 87.8221 54.2517 86.8906C54.2517 85.8427 54.5647 85.0276 55.1906 84.329C55.8165 83.6303 56.651 83.281 57.4855 83.281C58.2157 83.281 58.946 83.5139 59.4675 84.0961C59.5719 84.0961 59.5718 84.2125 59.5718 84.329C59.5718 84.4454 59.5719 84.4454 59.4675 84.5618C59.4675 84.6783 59.3632 84.6783 59.2589 84.6783C59.1546 84.6783 59.1546 84.6783 59.0502 84.5618C58.5287 84.0961 58.0071 83.9796 57.3812 83.9796C56.651 83.9796 56.0251 84.329 55.3992 84.9112C54.8776 85.4934 54.5646 86.192 54.5646 87.1235C54.5646 87.9386 54.8776 88.6372 55.3992 89.3359C55.9207 89.9181 56.5467 90.2674 57.3812 90.2674C58.1114 90.2674 58.7373 90.0345 59.2589 89.4523C59.3632 89.4523 59.3632 89.3359 59.4675 89.3359C59.5719 89.3359 59.5718 89.3359 59.6762 89.4523C59.6762 89.5687 59.7805 89.5687 59.7805 89.6852C59.7805 89.8016 59.7805 89.8016 59.6762 89.9181C59.0503 90.1509 58.32 90.5003 57.4855 90.5003Z" fill="#C34B90"/>
<path d="M61.7626 90.1511C61.7626 90.2676 61.7626 90.2676 61.6583 90.384C61.6583 90.5005 61.554 90.5005 61.4497 90.5005C61.3454 90.5005 61.3454 90.5005 61.241 90.384C61.1367 90.384 61.1367 90.2676 61.1367 90.1511V83.3976C61.1367 83.2812 61.1367 83.2812 61.241 83.1648C61.241 83.0483 61.3454 83.0483 61.4497 83.0483C61.554 83.0483 61.554 83.0483 61.6583 83.1648C61.7626 83.1648 61.7626 83.2812 61.7626 83.3976V90.1511Z" fill="#C34B90"/>
<path d="M63.3275 90.3838C63.2232 90.3838 63.2231 90.2674 63.2231 90.2674C63.2231 90.1509 63.2231 90.1509 63.2231 90.0345L63.8491 88.2879L65.7268 83.281H65.8311H65.9354L67.8131 88.2879L68.439 90.0345C68.439 90.1509 68.439 90.1509 68.439 90.2674C68.439 90.3838 68.3347 90.3838 68.3347 90.3838H68.2304C68.126 90.3838 68.0217 90.2674 68.0217 90.1509L67.6045 88.7537H64.2663L63.7447 90.2674C63.7447 90.3838 63.6404 90.5003 63.5361 90.5003C63.4318 90.5003 63.4318 90.5002 63.3275 90.3838C63.4318 90.3838 63.4318 90.5002 63.3275 90.3838ZM67.3958 88.1715L65.9354 84.329L64.475 88.1715H67.3958Z" fill="#C34B90"/>
<path d="M70.2124 83.1646C70.3167 83.1646 70.3167 83.1646 70.421 83.281C70.421 83.281 70.5253 83.3974 70.5253 83.5139V89.918H73.4462C73.5505 89.918 73.5505 89.9181 73.6548 90.0345C73.7591 90.1509 73.7591 90.1509 73.7591 90.2674C73.7591 90.3838 73.7591 90.3838 73.6548 90.5002C73.6548 90.5002 73.5505 90.6167 73.4462 90.6167H70.2124C70.108 90.6167 70.108 90.6167 70.0037 90.5002C70.0037 90.3838 69.8994 90.3838 69.8994 90.2674V83.5139C69.8994 83.3974 69.8994 83.3974 70.0037 83.281C70.0037 83.1646 70.108 83.1646 70.2124 83.1646Z" fill="#C34B90"/>
<path d="M75.4279 90.151C75.4279 90.2675 75.4279 90.2675 75.3236 90.3839C75.2193 90.3839 75.2193 90.5004 75.115 90.5004C75.0107 90.5004 75.0106 90.5003 74.9063 90.3839C74.9063 90.2675 74.802 90.2675 74.802 90.151V83.3975C74.802 83.2811 74.9063 83.1647 75.0106 83.0482C75.115 83.0482 75.2193 83.0482 75.3236 83.1647L78.0358 88.1716L80.7481 83.1647C80.8524 83.0482 80.9567 82.9318 81.061 83.0482C81.1653 83.0482 81.2696 83.1647 81.2696 83.3975V90.151C81.2696 90.2675 81.2696 90.2675 81.1653 90.3839C81.1653 90.3839 81.061 90.5004 80.9567 90.5004C80.8524 90.5004 80.8524 90.5003 80.7481 90.3839C80.7481 90.2675 80.6437 90.2675 80.6437 90.151V84.5619L78.1401 89.1031L75.6366 84.5619V90.151H75.4279Z" fill="#C34B90"/>
<path d="M83.4607 90.5005C83.3564 90.5005 83.3563 90.5005 83.252 90.384C83.1477 90.384 83.1477 90.2676 83.1477 90.1511V83.3976C83.1477 83.2812 83.1477 83.2812 83.252 83.1648C83.3563 83.0483 83.3564 83.0483 83.4607 83.0483H87.1118C87.2161 83.0483 87.2161 83.0483 87.3204 83.1648C87.4247 83.2812 87.4247 83.2812 87.4247 83.3976C87.4247 83.5141 87.4247 83.5141 87.3204 83.6305C87.3204 83.6305 87.2161 83.747 87.1118 83.747H83.7736V86.5415H86.2772C86.3815 86.5415 86.3815 86.5415 86.4858 86.658C86.5902 86.658 86.5902 86.7744 86.5902 86.8908C86.5902 87.0073 86.5902 87.0073 86.4858 87.1237C86.4858 87.2402 86.3815 87.2402 86.2772 87.2402H83.7736V90.0347H87.1118C87.2161 90.0347 87.2161 90.0347 87.3204 90.1511C87.4247 90.1511 87.4247 90.2676 87.4247 90.384C87.4247 90.5005 87.4247 90.5005 87.3204 90.6169C87.3204 90.7334 87.2161 90.7333 87.1118 90.7333H83.4607V90.5005Z" fill="#C34B90"/>
<path d="M93.4748 90.384L89.3021 84.3292V90.1511C89.3021 90.2676 89.3022 90.2676 89.1979 90.384C89.1979 90.5005 89.0935 90.5005 88.9892 90.5005C88.8849 90.5005 88.8849 90.5005 88.7806 90.384C88.6762 90.384 88.6763 90.2676 88.6763 90.1511V83.3976C88.6763 83.2812 88.7806 83.1648 88.8849 83.0483C88.9892 83.0483 89.0935 83.0483 89.1979 83.1648L93.3705 89.2196V83.3976C93.3705 83.2812 93.3705 83.2812 93.4748 83.1648C93.5791 83.0483 93.5791 83.0483 93.6835 83.0483C93.7878 83.0483 93.7878 83.0483 93.8921 83.1648C93.8921 83.1648 93.9964 83.2812 93.9964 83.3976V90.1511C93.9964 90.1511 93.9964 90.1511 93.8921 90.1511C93.5791 90.384 93.5791 90.384 93.4748 90.384C93.5791 90.384 93.5791 90.384 93.4748 90.384C93.4748 90.384 93.5791 90.384 93.4748 90.384Z" fill="#C34B90"/>
<path d="M97.1259 83.747H95.3525C95.2482 83.747 95.2482 83.747 95.1439 83.6305C95.1439 83.6305 95.0396 83.5141 95.0396 83.3976C95.0396 83.2812 95.0396 83.2812 95.1439 83.1648C95.2482 83.0483 95.2482 83.0483 95.3525 83.0483H99.5252C99.6295 83.0483 99.6295 83.0483 99.7338 83.1648C99.8381 83.1648 99.8381 83.2812 99.8381 83.3976C99.8381 83.5141 99.8381 83.5141 99.7338 83.6305C99.7338 83.6305 99.6295 83.747 99.5252 83.747H97.7518V90.1511C97.7518 90.2676 97.7518 90.2676 97.6475 90.384C97.5431 90.384 97.5432 90.5005 97.4389 90.5005C97.3345 90.5005 97.3345 90.5005 97.2302 90.384C97.2302 90.2676 97.1259 90.2676 97.1259 90.1511V83.747Z" fill="#C34B90"/>
<path d="M100.986 90.5005C100.881 90.5005 100.881 90.5005 100.777 90.384C100.673 90.384 100.673 90.2676 100.673 90.1511V83.3976C100.673 83.2812 100.673 83.2812 100.777 83.1648C100.881 83.0483 100.881 83.0483 100.986 83.0483H104.637C104.741 83.0483 104.741 83.0483 104.845 83.1648C104.95 83.2812 104.95 83.2812 104.95 83.3976C104.95 83.5141 104.95 83.5141 104.845 83.6305C104.845 83.6305 104.741 83.747 104.637 83.747H101.298V86.5415H103.802C103.906 86.5415 103.906 86.5415 104.011 86.658C104.115 86.658 104.115 86.7744 104.115 86.8908C104.115 87.0073 104.115 87.0073 104.011 87.1237C104.011 87.2402 103.906 87.2402 103.802 87.2402H101.298V90.0347H104.637C104.741 90.0347 104.741 90.0347 104.845 90.1511C104.95 90.1511 104.95 90.2676 104.95 90.384C104.95 90.5005 104.95 90.5005 104.845 90.6169C104.845 90.7334 104.741 90.7333 104.637 90.7333H100.986V90.5005Z" fill="#C34B90"/>
<path d="M109.226 90.1511C109.226 90.2676 109.226 90.2676 109.122 90.384C109.122 90.5005 109.018 90.5005 108.914 90.5005C108.809 90.5005 108.809 90.5005 108.705 90.384C108.601 90.384 108.601 90.2676 108.601 90.1511V83.3976C108.601 83.2812 108.601 83.2812 108.705 83.1648C108.705 83.0483 108.809 83.0483 108.914 83.0483C109.018 83.0483 109.018 83.0483 109.122 83.1648C109.226 83.1648 109.226 83.2812 109.226 83.3976V90.1511Z" fill="#C34B90"/>
<path d="M115.798 90.384L111.625 84.3292V90.1511C111.625 90.2676 111.625 90.2676 111.521 90.384C111.521 90.5005 111.417 90.5005 111.312 90.5005C111.208 90.5005 111.208 90.5005 111.104 90.384C111 90.384 111 90.2676 111 90.1511V83.3976C111 83.2812 111.104 83.1648 111.208 83.0483C111.312 83.0483 111.417 83.0483 111.521 83.1648L115.694 89.2196V83.3976C115.694 83.2812 115.694 83.2812 115.798 83.1648C115.902 83.0483 115.902 83.0483 116.007 83.0483C116.111 83.0483 116.111 83.0483 116.215 83.1648C116.215 83.1648 116.32 83.2812 116.32 83.3976V90.1511C116.32 90.1511 116.32 90.1511 116.215 90.1511C115.902 90.384 115.902 90.384 115.798 90.384C115.902 90.384 115.902 90.384 115.798 90.384C115.902 90.384 115.902 90.384 115.798 90.384Z" fill="#C34B90"/>
<path d="M119.45 83.747H117.676C117.572 83.747 117.572 83.747 117.468 83.6305C117.468 83.6305 117.363 83.5141 117.363 83.3976C117.363 83.2812 117.363 83.2812 117.468 83.1648C117.572 83.0483 117.572 83.0483 117.676 83.0483H121.849C121.953 83.0483 121.953 83.0483 122.058 83.1648C122.162 83.1648 122.162 83.2812 122.162 83.3976C122.162 83.5141 122.162 83.5141 122.058 83.6305C122.058 83.6305 121.953 83.747 121.849 83.747H120.075V90.1511C120.075 90.2676 120.076 90.2676 119.971 90.384C119.867 90.384 119.867 90.5005 119.763 90.5005C119.658 90.5005 119.658 90.5005 119.554 90.384C119.554 90.2676 119.45 90.2676 119.45 90.1511V83.747Z" fill="#C34B90"/>
<path d="M123.726 90.1511C123.726 90.2676 123.726 90.2676 123.622 90.384C123.622 90.5005 123.518 90.5005 123.414 90.5005C123.309 90.5005 123.309 90.5005 123.205 90.384C123.101 90.384 123.101 90.2676 123.101 90.1511V83.3976C123.101 83.2812 123.101 83.2812 123.205 83.1648C123.205 83.0483 123.309 83.0483 123.414 83.0483C123.518 83.0483 123.518 83.0483 123.622 83.1648C123.726 83.1648 123.726 83.2812 123.726 83.3976V90.1511Z" fill="#C34B90"/>
<path d="M126.126 90.151C126.126 90.2675 126.126 90.2675 126.022 90.3839C125.918 90.3839 125.917 90.5004 125.813 90.5004C125.709 90.5004 125.709 90.5003 125.605 90.3839C125.605 90.2675 125.5 90.2675 125.5 90.151V83.3975C125.5 83.2811 125.605 83.1647 125.709 83.0482C125.813 83.0482 125.918 83.0482 126.022 83.1647L128.734 88.1716L131.446 83.1647C131.551 83.0482 131.655 82.9318 131.759 83.0482C131.864 83.0482 131.968 83.1647 131.968 83.3975V90.151C131.968 90.2675 131.968 90.2675 131.864 90.3839C131.864 90.3839 131.759 90.5004 131.655 90.5004C131.551 90.5004 131.551 90.5003 131.446 90.3839C131.446 90.2675 131.342 90.2675 131.342 90.151V84.5619L128.838 89.1031L126.335 84.5619V90.151H126.126Z" fill="#C34B90"/>
<path d="M136.766 90.5003C135.827 90.5003 135.097 90.1509 134.471 89.4523C133.845 88.7537 133.532 87.8221 133.532 86.8906C133.532 85.8427 133.845 85.0276 134.471 84.329C135.097 83.6303 135.932 83.281 136.766 83.281C137.705 83.281 138.435 83.6303 139.061 84.329C139.687 85.0276 140 85.9591 140 86.8906C140 87.9386 139.687 88.7537 139.061 89.4523C138.435 90.0345 137.601 90.5003 136.766 90.5003ZM136.766 83.7468C136.036 83.7468 135.41 84.0961 134.784 84.6783C134.263 85.2605 133.95 85.9591 133.95 86.8906C133.95 87.7057 134.263 88.4043 134.784 89.103C135.306 89.6852 135.932 90.0345 136.766 90.0345C137.496 90.0345 138.122 89.6852 138.748 89.103C139.27 88.5208 139.583 87.8221 139.583 86.8906C139.583 86.0755 139.27 85.3769 138.748 84.6783C138.122 83.9796 137.496 83.7468 136.766 83.7468Z" fill="#C34B90"/>
<defs>
<linearGradient id="paint0_linear" x1="65.0655" y1="42.2886" x2="99.471" y2="7.35148" gradientUnits="userSpaceOnUse">
<stop stop-color="#C34B90"/>
<stop offset="0.1843" stop-color="#C24A90"/>
<stop offset="0.3455" stop-color="#BE4A90"/>
<stop offset="0.4981" stop-color="#B64890"/>
<stop offset="0.6455" stop-color="#A94690"/>
<stop offset="0.789" stop-color="#96448F"/>
<stop offset="0.9278" stop-color="#7F428D"/>
<stop offset="1" stop-color="#72408D"/>
</linearGradient>
<linearGradient id="paint1_linear" x1="-nan" y1="-nan" x2="-nan" y2="-nan" gradientUnits="userSpaceOnUse">
<stop stop-color="#C34B90"/>
<stop offset="0.1843" stop-color="#C24A90"/>
<stop offset="0.3455" stop-color="#BE4A90"/>
<stop offset="0.4981" stop-color="#B64890"/>
<stop offset="0.6455" stop-color="#A94690"/>
<stop offset="0.789" stop-color="#96448F"/>
<stop offset="0.9278" stop-color="#7F428D"/>
<stop offset="1" stop-color="#72408D"/>
</linearGradient>
</defs>
</svg>
