<svg width="36" height="36" viewBox="0 0 36 36" fill="none" xmlns="http://www.w3.org/2000/svg">
<path d="M18.1018 32.8623C9.95813 32.8623 3.13776 26.1438 3.34136 17.6947C3.54495 9.75456 10.0599 3.03602 18.509 3.23962C26.4491 3.44321 33.1677 9.95817 32.9641 18.4073C32.6587 26.3474 26.1438 32.8623 18.1018 32.8623ZM7.61682 26.4492C7.61682 26.3474 7.71859 26.2456 7.71859 26.1438C8.63476 22.5809 10.8743 20.1378 14.2336 18.8144C14.539 18.7126 14.7426 18.7126 15.0479 18.8144C16.9821 19.7306 18.9162 19.7306 20.8504 18.8144C21.1557 18.7126 21.4611 18.6109 21.7665 18.8144C24.515 19.9342 26.5509 21.8683 27.6707 24.6168C27.9761 25.2276 28.0779 25.8384 28.2815 26.5509C32.4551 21.6647 32.4551 13.6228 27.0599 8.4312C21.8683 3.54498 13.521 3.54501 8.32938 8.83841C3.44315 13.8264 3.64676 21.6647 7.61682 26.4492Z" fill="url(#paint0_linear)"/>
<path d="M7.61688 26.449C3.54502 21.6646 3.44321 13.9281 8.43124 8.73649C13.6229 3.34129 21.9702 3.34129 27.1618 8.32931C32.6588 13.5209 32.557 21.5628 28.3833 26.449C28.1797 25.8383 27.9761 25.1257 27.7726 24.5149C26.551 21.7664 24.6169 19.8323 21.8684 18.7125C21.563 18.6107 21.2576 18.6107 20.9522 18.7125C19.0181 19.6287 17.0839 19.6287 15.1498 18.7125C14.8444 18.6107 14.6408 18.5089 14.3354 18.7125C10.9761 20.1377 8.73662 22.5808 7.82045 26.0418C7.71865 26.1436 7.71867 26.3473 7.61688 26.449ZM18.1019 7.51492C15.1498 7.51492 12.9103 9.85625 12.8085 12.7065C12.7067 15.455 15.048 17.9999 18.0001 18.1017C21.054 18.1017 23.3953 15.8622 23.3953 12.9101C23.2935 9.85626 21.054 7.51492 18.1019 7.51492Z" fill="white"/>
<path d="M18.102 7.51489C21.0541 7.51489 23.3954 9.85622 23.3954 12.8083C23.3954 15.7604 21.0541 18.1017 18.0002 17.9999C15.0481 17.9999 12.8086 15.455 12.8086 12.6047C12.8086 9.75441 15.1499 7.51489 18.102 7.51489Z" fill="url(#paint1_linear)"/>
<path d="M18 35C27.3888 35 35 27.3888 35 18C35 8.61117 27.3888 1 18 1C8.61114 1 1 8.61117 1 18C1 27.3888 8.61114 35 18 35Z" stroke="url(#paint2_linear)" stroke-miterlimit="10"/>
<defs>
<linearGradient id="paint0_linear" x1="18.048" y1="3.23565" x2="18.048" y2="32.8336" gradientUnits="userSpaceOnUse">
<stop stop-color="#C34B90"/>
<stop offset="0.4119" stop-color="#C34A90"/>
<stop offset="0.5608" stop-color="#C04A90"/>
<stop offset="0.667" stop-color="#BB4990"/>
<stop offset="0.7529" stop-color="#B34890"/>
<stop offset="0.8264" stop-color="#A84690"/>
<stop offset="0.8917" stop-color="#98458F"/>
<stop offset="0.9492" stop-color="#86438E"/>
<stop offset="1" stop-color="#72408D"/>
</linearGradient>
<linearGradient id="paint1_linear" x1="18.0437" y1="7.48079" x2="18.0437" y2="18.0319" gradientUnits="userSpaceOnUse">
<stop stop-color="#C34B90"/>
<stop offset="0.4119" stop-color="#C34A90"/>
<stop offset="0.5608" stop-color="#C04A90"/>
<stop offset="0.667" stop-color="#BB4990"/>
<stop offset="0.7529" stop-color="#B34890"/>
<stop offset="0.8264" stop-color="#A84690"/>
<stop offset="0.8917" stop-color="#98458F"/>
<stop offset="0.9492" stop-color="#86438E"/>
<stop offset="1" stop-color="#72408D"/>
</linearGradient>
<linearGradient id="paint2_linear" x1="18.0479" y1="0.556066" x2="18.0479" y2="35.5131" gradientUnits="userSpaceOnUse">
<stop stop-color="#C34B90"/>
<stop offset="0.4119" stop-color="#C34A90"/>
<stop offset="0.5608" stop-color="#C04A90"/>
<stop offset="0.667" stop-color="#BB4990"/>
<stop offset="0.7529" stop-color="#B34890"/>
<stop offset="0.8264" stop-color="#A84690"/>
<stop offset="0.8917" stop-color="#98458F"/>
<stop offset="0.9492" stop-color="#86438E"/>
<stop offset="1" stop-color="#72408D"/>
</linearGradient>
</defs>
</svg>
